<svg width="1440" height="151" viewBox="0 0 1440 151" fill="none" xmlns="http://www.w3.org/2000/svg">
<path fill-rule="evenodd" clip-rule="evenodd" d="M-459 82.5917L-459 150.667L1461 150.667L1461 9.17216C1458.6 9.94801 1456.29 10.8443 1454.11 11.8526C1448.61 -8.12541 1438.4 0.767332 1425.3 12.1745C1413.27 22.6541 1398.8 35.2558 1383.3 29.5444C1380.24 31.7496 1377.42 33.8272 1374.78 35.7646C1352.19 52.4077 1343.64 58.7046 1314.31 46.6995C1303.84 49.5623 1295.1 50.1655 1287.26 50.7058C1273.97 51.6224 1263.3 52.358 1251.31 63.6406C1237.66 47.4244 1228.13 53.5732 1216.17 61.2904C1209.03 65.8959 1201.02 71.0601 1190.76 72.3625C1188.85 70.6519 1186.92 68.835 1184.96 66.9964C1168.41 51.4327 1150.2 34.3057 1131.99 66.8132C1124.41 74.324 1114.78 70.5045 1105.4 66.7853C1094.59 62.5007 1084.12 58.3493 1077.52 71.8092C1054.27 30.5161 1038.56 39.2826 1023.08 47.9141C1014.98 52.4345 1006.94 56.9179 997.92 54.1539C992.735 55.4124 987.692 57.6992 982.622 59.998C968.688 66.316 954.555 72.7242 936.742 58.1211C928.347 50.7301 918.915 55.4563 909.454 60.1972C897.915 65.979 886.332 71.7827 876.536 55.655C861.79 54.8776 841.593 63.848 829.214 77.7868C818.156 86.7293 808.598 81.1133 797.944 74.8535C790.81 70.6619 783.185 66.1815 774.289 65.5902C772.549 65.3484 770.748 65.3484 769.008 65.5902C764.203 64.2261 759.106 63.3228 753.882 62.9098C751.98 62.9098 750.087 62.8455 748.154 62.78C746.14 62.7116 744.082 62.6418 741.926 62.6418C737.689 62.3467 733.016 63.82 728.345 65.2927C721.139 67.5649 713.937 69.8356 708.349 65.6069C706.734 64.6997 705.401 63.6088 704.419 62.3904C696.86 55.8581 690.529 55.7805 683.291 55.6917C676.451 55.6078 668.8 55.514 658.536 49.9527C649.82 47.9761 645.085 52.4961 640.156 57.1999C633.857 63.2128 627.242 69.5261 611.597 62.9537C604.045 56.5267 595.025 57.2495 586.179 57.9583C578.939 58.5384 571.817 59.1091 565.713 55.7431C561.477 56.6808 558.01 57.685 554.933 58.5763C544.902 61.4815 539.011 63.1878 524.139 57.4855C516.055 45.215 500.067 55.3432 490.694 61.2811C488.457 62.6981 486.597 63.8764 485.311 64.4548C483.335 72.1002 478.383 69.9046 471.917 67.0378C464.282 63.6528 454.537 59.3322 445.089 69.1725C425.526 63.9638 408.974 65.2036 387.924 66.7802C384.924 67.0048 381.834 67.2363 378.63 67.4569C367.184 71.8092 357.285 66.1419 347.9 60.7687C336.361 54.1624 325.598 48.0008 313.692 61.4526C290.328 63.7042 269.752 65.2054 250.317 55.2338C241.208 54.3355 233.992 54.7351 226.727 55.1375C215.999 55.7316 205.162 56.3318 187.956 52.7678C176.874 57.7448 166.8 59.7622 156.267 61.8717C146.32 63.8636 135.963 65.9376 123.96 70.6633C114.096 72.1656 104.94 75.514 96.5463 78.5834C83.2241 83.4552 71.824 87.624 62.5706 82.5919C48.8211 92.6308 31.8863 83.1919 17.0134 74.9022C6.43037 69.0036 -3.10857 63.6868 -9.71306 66.3837C-21.0733 65.0503 -30.3293 70.0099 -39.1692 74.7465C-50.0553 80.5796 -60.3106 86.0746 -73.0879 79.0627C-74.8775 79.5839 -77.4139 81.5036 -80.5107 83.8475C-90.7938 91.6306 -107.256 104.09 -123.07 85.5494C-130.853 85.6364 -135.704 89.7335 -139.742 93.1435C-146.903 99.1921 -151.506 103.079 -165.373 78.5904C-174.217 100.91 -183.958 91.4785 -192.296 83.4044C-200.05 75.8958 -206.592 69.5613 -210.074 91.0279C-224.988 109.202 -237.747 112.257 -268.547 104.216C-276.132 100.609 -282.605 95.2077 -288.446 90.3337C-303.138 78.0751 -313.833 69.1509 -328.162 100.49C-332.495 100.705 -336.461 101.366 -340.313 102.009C-354.226 104.328 -366.654 106.4 -389.551 86.3101C-390.99 85.1125 -414.621 84.3508 -433.956 83.7275C-446.686 83.3172 -457.553 82.9669 -459 82.5917Z" fill="#F9F9F9"/>
</svg>
